<mxfile host="app.diagrams.net" modified="2021-07-11T16:43:19.454Z" agent="5.0 (Windows NT 10.0; WOW64) AppleWebKit/537.36 (KHTML, like Gecko) Chrome/87.0.4280.141 Safari/537.36" etag="5nh4-IkkvRE-fP5l8joK" version="14.2.9" type="github">
  <diagram id="2XON2i4Csvg6Y05DBYoC" name="第 1 页">
    <mxGraphModel dx="1422" dy="706" grid="1" gridSize="10" guides="1" tooltips="1" connect="1" arrows="1" fold="1" page="1" pageScale="1" pageWidth="850" pageHeight="1100" math="0" shadow="0">
      <root>
        <mxCell id="0" />
        <mxCell id="1" parent="0" />
        <mxCell id="vVssXT7GtxA0sMYf_8Pt-1" value="" style="endArrow=none;html=1;strokeWidth=5;shape=link;shadow=1;sketch=1;strokeColor=#808080;" edge="1" parent="1">
          <mxGeometry width="50" height="50" relative="1" as="geometry">
            <mxPoint x="181" y="520" as="sourcePoint" />
            <mxPoint x="181" y="80" as="targetPoint" />
          </mxGeometry>
        </mxCell>
        <mxCell id="vVssXT7GtxA0sMYf_8Pt-2" value="DEV" style="edgeLabel;html=1;align=center;verticalAlign=middle;resizable=0;points=[];" vertex="1" connectable="0" parent="vVssXT7GtxA0sMYf_8Pt-1">
          <mxGeometry x="0.6667" y="-2" relative="1" as="geometry">
            <mxPoint as="offset" />
          </mxGeometry>
        </mxCell>
        <mxCell id="vVssXT7GtxA0sMYf_8Pt-3" value="Text" style="edgeLabel;html=1;align=center;verticalAlign=middle;resizable=0;points=[];" vertex="1" connectable="0" parent="vVssXT7GtxA0sMYf_8Pt-1">
          <mxGeometry x="0.2296" y="1" relative="1" as="geometry">
            <mxPoint as="offset" />
          </mxGeometry>
        </mxCell>
      </root>
    </mxGraphModel>
  </diagram>
</mxfile>
